<svg width="61" height="61" viewBox="0 0 61 61" fill="none" xmlns="http://www.w3.org/2000/svg">
<path d="M0 18C0 8.05888 8.05888 0 18 0H43C52.9411 0 61 8.05888 61 18V43C61 52.9411 52.9411 61 43 61H18C8.05888 61 0 52.9411 0 43V18Z" fill="#171717"/>
<path d="M37.283 12.0861C35.3138 11.3944 33.2056 11 31.0016 11C29.2189 11 27.501 11.2637 25.8641 11.7226L25.8655 23.5051L37.283 12.0861Z" fill="#4E99A3"/>
<path d="M48.1359 21.8369C46.4703 18.3467 43.7798 15.4471 40.4434 13.529L32.1356 21.8369H48.1359Z" fill="#4E99A3"/>
<path d="M12.9452 24.1008C12.3382 25.9592 12 27.9385 12 29.9983C12 31.8864 12.2848 33.7061 12.7971 35.4279H24.2736L12.9452 24.1008Z" fill="#4E99A3"/>
<path d="M39.455 46.996C42.8333 45.3106 45.6382 42.6588 47.5024 39.3897L39.455 31.3415V46.996Z" fill="#4E99A3"/>
<path d="M49.3371 25.0922H37.8099L48.9379 36.2177C49.6144 34.2673 50 32.1801 50 29.9983C50 28.2991 49.7564 26.6595 49.3371 25.0922Z" fill="#4E99A3"/>
<path d="M25.149 48.0722C26.9937 48.6691 28.9578 49 31.0015 49C32.8065 49 34.5453 48.7313 36.1999 48.2613V37.0189L25.149 48.0722Z" fill="#4E99A3"/>
<path d="M14.1141 38.6845C15.8607 42.0715 18.5823 44.8727 21.9223 46.694L29.9315 38.6845H14.1141Z" fill="#4E99A3"/>
<path d="M22.608 12.9741C19.105 14.7044 16.2043 17.4658 14.3311 20.8829L22.608 29.1598V12.9741Z" fill="#4E99A3"/>
</svg>
