<svg width="346" height="68" viewBox="0 0 346 68" fill="none" xmlns="http://www.w3.org/2000/svg">
<path d="M62 68V13.6735H68.9323V19.9222H69.0782C72.7268 14.6292 78.2726 12.5708 83.4535 12.5708C97.1721 12.5708 104.396 23.6713 104.396 34.5513C104.396 44.8432 96.7343 55.4292 83.9643 55.4292C75.4997 55.4292 71.2673 51.0919 69.7349 48.5189H69.589V68H62ZM96.8073 34.1103C96.8073 26.8324 91.1885 19.5546 82.9427 19.5546C74.9889 19.5546 69.4431 26.4649 69.4431 33.9632C69.4431 42.1968 75.4997 48.4454 83.1617 48.4454C90.3128 48.4454 96.8073 42.7113 96.8073 34.1103Z" fill="#B1B1B1"/>
<path d="M149.605 37.3449H116.112C118.009 45.2108 124.284 48.4454 129.392 48.4454C135.011 48.4454 139.098 45.1373 140.922 41.6086H148.511C144.643 52.1211 135.376 55.4292 129.1 55.4292C117.644 55.4292 108.523 45.5049 108.523 33.9632C108.523 21.76 117.863 12.5708 129.246 12.5708C140.192 12.5708 149.751 21.5395 149.824 33.4486C149.824 34.7719 149.678 36.8303 149.605 37.3449ZM116.112 31.4638H142.235C141.87 25.5092 136.471 19.5546 129.173 19.5546C121.876 19.5546 116.476 25.5092 116.112 31.4638Z" fill="#B1B1B1"/>
<path d="M191.754 54.4H184.165V32.2724C184.165 29.1114 184.165 19.5546 174.095 19.5546C167.746 19.5546 163.441 24.0389 163.441 32.1989V54.4H155.852V13.6735H162.93V18.0108H163.076C167.162 12.5708 173.292 12.5708 174.897 12.5708C181.173 12.5708 186.281 15.2908 189.2 19.8486C190.805 22.4951 191.681 25.7297 191.754 30.2876V54.4Z" fill="#B1B1B1"/>
<path d="M235.538 54.4H225.687L207.882 29.1849H207.736V54.4H199.855V0H216.566C224.155 0 228.095 1.83784 230.941 4.55784C234.371 7.86595 235.903 12.8649 235.903 17.4227C235.903 31.8313 223.936 34.1103 220.433 34.1103L235.538 54.4ZM207.736 7.27784V28.0822H213.136C216.347 28.0822 228.022 27.9351 228.022 17.4227C228.022 12.8649 224.957 7.27784 216.055 7.27784H207.736Z" fill="#B1B1B1"/>
<path d="M286.016 54.4H277.624L271.641 38.3741H252.23L246.247 54.4H237.928L258.433 0H265.511L286.016 54.4ZM255.003 31.0962H268.941L262.081 10.2919H261.935L255.003 31.0962Z" fill="#B1B1B1"/>
<path d="M330.895 54.4H323.963L314.185 16.3935H314.039L304.26 54.4H297.328L282.223 0H290.396L300.685 40.947H300.831L311.266 0H317.03L327.319 40.653H327.465L337.973 0H346L330.895 54.4Z" fill="#B1B1B1"/>
<path d="M37.2591 1.60058C34.3572 0.581181 31.2504 0 28.0024 0C25.3752 0 22.8435 0.388629 20.4314 1.06489L20.4334 18.4285L37.2591 1.60058Z" fill="#B1B1B1"/>
<path d="M53.2529 15.9702C50.7983 10.8267 46.8334 6.55359 41.9166 3.72695L29.6735 15.9702H53.2529Z" fill="#B1B1B1"/>
<path d="M1.39289 19.3065C0.49838 22.0452 0 24.962 0 27.9974C0 30.7799 0.419676 33.4617 1.17464 35.999H18.0875L1.39289 19.3065Z" fill="#B1B1B1"/>
<path d="M40.46 53.0468C45.4385 50.5631 49.572 46.655 52.3194 41.8375L40.46 29.977V53.0468Z" fill="#B1B1B1"/>
<path d="M55.023 20.7675H38.0356L54.4348 37.1629C55.4318 34.2886 56 31.2128 56 27.9974C56 25.4934 55.6411 23.0772 55.023 20.7675Z" fill="#B1B1B1"/>
<path d="M19.3774 54.6327C22.096 55.5124 24.9904 56 28.0023 56C30.6621 56 33.2247 55.604 35.663 54.9113V38.3436L19.3774 54.6327Z" fill="#B1B1B1"/>
<path d="M3.1155 40.7982C5.68951 45.7896 9.7002 49.9176 14.6224 52.6016L26.4254 40.7982H3.1155Z" fill="#B1B1B1"/>
<path d="M15.6329 2.90921C10.4705 5.45913 6.19587 9.52853 3.43533 14.5642L15.6329 26.7618V2.90921Z" fill="#B1B1B1"/>
</svg>
